<?xml version="1.0" encoding="UTF-8"?>
<svg width="11px" height="20px" viewBox="0 0 11 20" version="1.1" xmlns="http://www.w3.org/2000/svg" xmlns:xlink="http://www.w3.org/1999/xlink">
    <!-- Generator: Sketch 52.5 (67469) - http://www.bohemiancoding.com/sketch -->
    <title>功能图标/右箭头</title>
    <desc>Created with Sketch.</desc>
    <g id="功能图标/右箭头" stroke="none" stroke-width="1" fill="none" fill-rule="evenodd" stroke-linecap="round" stroke-linejoin="round">
        <g id="Group-2" transform="translate(3.000000, 4.000000)" fill="#D8D8D8" stroke="#D8D8D8" stroke-width="0.5">
            <path d="M6.77139292,5.59028321 C6.79822404,5.60738936 6.82382194,5.62706272 6.84781646,5.64930326 C6.85272247,5.65385065 6.8575309,5.65849525 6.86223869,5.6632341 C6.9558087,5.75742158 7.00151672,5.87902898 6.99996163,6 C7.00151672,6.12097102 6.9558087,6.24257842 6.86223869,6.3367659 C6.8575309,6.34150475 6.85272247,6.34614935 6.84781646,6.35069674 C6.82382194,6.37293728 6.79822404,6.39261064 6.77139292,6.40971679 L0.896142753,11.8554915 C0.68826946,12.0481695 0.360056832,12.0481695 0.152183539,11.8554915 C0.14727753,11.8509442 0.142469099,11.8462996 0.137761312,11.8415607 C-0.0514116237,11.6511394 -0.0449545726,11.3486426 0.152183539,11.1659151 L5.72550317,6 L0.152183539,0.834084934 C-0.0449545726,0.651357438 -0.0514116237,0.348860582 0.137761312,0.158439297 C0.142469099,0.153700443 0.14727753,0.149055844 0.152183539,0.144508459 C0.360056832,-0.0481694864 0.68826946,-0.0481694864 0.896142753,0.144508459 L6.77139292,5.59028321 Z" id="Path"></path>
        </g>
    </g>
</svg>